<svg width="251" height="32" viewBox="0 0 251 32" fill="none" xmlns="http://www.w3.org/2000/svg">
<g id="Camada 3">
<g id="pixtrade-branco">
<g id="Group">
<path id="Vector" d="M241.122 0.919227H239.128V0.25H243.868V0.919227H241.874V6.23543H241.122V0.919227Z" fill="white"/>
<path id="Vector_2" d="M244.612 0.25H245.644L247.516 5.2214H247.535L249.408 0.25H250.436V6.23543H249.684V1.31261H249.668L247.86 6.23543H247.189L245.383 1.31261H245.365V6.23543H244.612V0.25Z" fill="white"/>
</g>
<path id="Vector_3" d="M96.5549 1.83609V5.7151H93.0379V1.83609H96.5549ZM96.4608 9.72889V30.2163H93.1539V9.72889H96.4608Z" fill="white"/>
<path id="Vector_4" d="M134.704 1.8361V9.7289H142.329V12.2914H134.704V24.676C134.704 25.7214 134.933 26.447 135.392 26.8545C135.851 27.262 136.654 27.4658 137.799 27.4658H142.884V30.2179H137.456C135.596 30.2179 134.118 29.7979 133.022 28.9563C131.939 28.1037 131.405 26.8796 131.417 25.2873V12.2914H127.251V9.7289H131.417V1.83453H134.705L134.704 1.8361Z" fill="white"/>
<path id="Vector_5" d="M151.732 9.72888V11.583C152.229 11.2021 152.652 10.8949 153.002 10.6677C153.353 10.4389 153.715 10.2241 154.091 10.0267C154.467 9.82919 154.776 9.72888 155.017 9.72888H160.407V12.481H151.731V30.2163H148.443V9.72888H151.731H151.732Z" fill="white"/>
<path id="Vector_6" d="M177.016 9.7289C178.838 9.71636 180.392 10.2978 181.68 11.4686C182.979 12.6268 183.617 14.042 183.59 15.7112V30.2163H180.304V28.3434C179.782 28.7509 179.348 29.0707 179.005 29.2995C178.66 29.5283 178.301 29.7399 177.925 29.9295C177.549 30.1207 177.246 30.2163 177.016 30.2163H170.308C168.524 30.2038 166.969 29.6176 165.645 28.4594C164.346 27.2871 163.702 25.886 163.714 24.2544V23.7576C163.727 22.09 164.369 20.6748 165.645 19.515C166.944 18.3426 168.487 17.769 170.27 17.7941H180.304V16.1516C180.316 15.0811 179.909 14.1706 179.081 13.4183C178.266 12.6675 177.284 12.2914 176.138 12.2914H165.913V9.7289H177.016ZM168.206 21.4835C167.416 22.0822 167.021 22.916 167.021 23.9864C167.021 24.8907 167.416 25.7073 168.206 26.4329C169.021 27.121 170.008 27.4642 171.168 27.4642H180.304V20.355H171.168C170.033 20.355 169.046 20.7312 168.206 21.4835Z" fill="white"/>
<path id="Vector_7" d="M211.109 1.83609L211.112 30.2163L207.806 30.2132V28.3434C207.283 28.7509 206.85 29.0707 206.507 29.2995C206.162 29.5283 205.805 29.7399 205.437 29.9295C205.067 30.1207 204.767 30.2163 204.539 30.2163H197.237C195.441 30.2038 193.88 29.6176 192.554 28.4594C191.267 27.2871 190.623 25.8734 190.623 24.2168V15.6939C190.623 14.0248 191.273 12.6111 192.572 11.4513C193.897 10.279 195.452 9.70695 197.235 9.73046H207.805L207.802 1.83766H211.107L211.109 1.83609ZM195.135 13.4371C194.333 14.1768 193.93 15.0811 193.93 16.1516V23.5272C193.942 24.5726 194.358 25.4769 195.173 26.2417C195.988 26.9799 196.956 27.3498 198.078 27.3498H207.806V12.2898H198.078C196.944 12.2898 195.964 12.6707 195.135 13.4355V13.4371Z" fill="white"/>
<path id="Vector_8" d="M232.518 9.72888C234.34 9.71634 235.894 10.2978 237.182 11.4686C238.481 12.6268 239.117 14.0358 239.092 15.6924V19.667C238.57 19.8958 238.136 20.0776 237.793 20.2124C237.448 20.3472 237.089 20.4663 236.713 20.576C236.337 20.6826 236.035 20.7374 235.806 20.7374H224.681C224.197 20.7374 223.71 20.5776 223.221 20.2594C222.73 19.9412 222.12 19.4758 221.395 18.863V23.6228C221.395 24.6682 221.802 25.5662 222.617 26.3185C223.432 27.0567 224.407 27.4266 225.542 27.4266H231.944C233.091 27.4266 234.058 27.0567 234.848 26.3185C235.663 25.5662 236.071 24.6682 236.071 23.6228V23.394H239.091V24.2152C239.103 25.8718 238.453 27.2871 237.143 28.4578C235.868 29.616 234.326 30.2038 232.518 30.2147H224.644C222.86 30.2022 221.318 29.616 220.019 28.4578C218.744 27.2855 218.1 25.8718 218.088 24.2152V15.6924C218.1 14.0232 218.743 12.6095 220.019 11.4497C221.318 10.2774 222.86 9.70537 224.644 9.72888H232.518ZM222.58 13.4182C221.79 14.1455 221.395 15.0435 221.395 16.1124V18.1389H235.806V16.1124C235.818 15.0435 235.411 14.1455 234.583 13.4182C233.768 12.6675 232.786 12.2914 231.64 12.2914H225.543C224.41 12.2914 223.421 12.6675 222.581 13.4182H222.58Z" fill="white"/>
<g id="Group_2">
<path id="Vector_9" d="M115.419 19.3801L124.593 9.72885H120.064L113.24 17.0684L106.418 9.72885H101.888L121.153 30.2163H125.683L115.419 19.3801Z" fill="white"/>
<path id="Vector_10" d="M108.678 21.9332L100.818 30.2179H105.366L110.875 24.2544C110.143 23.5099 109.455 22.7075 108.678 21.9332Z" fill="white"/>
</g>
<path id="Vector_11" d="M84.153 5.39223C82.3177 3.72152 80.1016 2.88773 77.5015 2.88773H61.5623V16.5528H65.1545V5.71509H77.1943C78.9778 5.69158 80.4558 6.21192 81.6281 7.28237C82.8255 8.35282 83.4242 9.70381 83.4242 11.3338C83.4242 12.9637 82.8255 14.2395 81.6281 15.3084C80.4558 16.3804 78.9778 16.9149 77.1943 16.9149H65.6356C65.3269 16.9149 65.0306 17.034 64.8065 17.2487L62.2425 19.7093C61.8068 20.1262 61.5623 20.703 61.5623 21.3064V30.2179H65.1545V17.9101C65.9318 18.5981 66.6042 19.1153 67.17 19.4585C67.7373 19.8033 68.2639 19.9742 68.7467 19.9742H77.4999C80.0984 19.9742 82.3099 19.1467 84.131 17.49C85.9663 15.8193 86.8832 13.8069 86.8832 11.4498C86.8957 9.08003 85.9851 7.05982 84.1498 5.39223H84.153Z" fill="white"/>
<path id="Vector_12" d="M7.86179 16.0254L0 23.8872L7.86179 31.749L15.7236 23.8872L7.86179 16.0254Z" fill="#7ED527"/>
<path id="Vector_13" d="M23.5847 0.303489L15.7229 8.16528L23.5847 16.0271L31.4465 8.16529L23.5847 0.303489Z" fill="#7ED527"/>
<path id="Vector_14" d="M23.5842 19.6233L19.3197 23.8878L23.5842 28.1522L27.8487 23.8878L23.5842 19.6233Z" fill="#7ED527"/>
<path id="Vector_15" d="M39.3067 16.0264L31.4449 23.8882L39.3067 31.75L47.1685 23.8882L39.3067 16.0264Z" fill="#7ED527"/>
</g>
</g>
</svg>
