<svg width="30" height="29" viewBox="0 0 30 29" fill="none" xmlns="http://www.w3.org/2000/svg">
<g id="ion:wallet-sharp">
<path id="Vector" d="M3.19043 5.89062H24.9688V2.91812C24.9688 2.78403 24.939 2.6516 24.8816 2.53039C24.8243 2.40918 24.7407 2.30221 24.637 2.2172C24.5333 2.13219 24.412 2.07125 24.2819 2.03878C24.1518 2.00631 24.0161 2.00312 23.8846 2.02943L3.0409 5.45506C2.88569 5.48596 2.74128 5.55696 2.62203 5.661C2.50278 5.76504 2.41286 5.8985 2.36121 6.04809C2.6252 5.94372 2.90656 5.89029 3.19043 5.89062ZM26.7529 7.25H3.19043C2.95008 7.25 2.71957 7.34548 2.54961 7.51543C2.37966 7.68539 2.28418 7.9159 2.28418 8.15625V24.4688C2.28418 24.7091 2.37966 24.9396 2.54961 25.1096C2.71957 25.2795 2.95008 25.375 3.19043 25.375H26.7529C26.9933 25.375 27.2238 25.2795 27.3937 25.1096C27.5637 24.9396 27.6592 24.7091 27.6592 24.4688V8.15625C27.6592 7.9159 27.5637 7.68539 27.3937 7.51543C27.2238 7.34548 26.9933 7.25 26.7529 7.25ZM21.3438 18.125C20.9853 18.125 20.6348 18.0187 20.3368 17.8195C20.0387 17.6204 19.8064 17.3373 19.6692 17.0061C19.532 16.6749 19.4961 16.3105 19.5661 15.9589C19.636 15.6073 19.8086 15.2844 20.0621 15.0309C20.3156 14.7774 20.6386 14.6048 20.9901 14.5348C21.3417 14.4649 21.7062 14.5008 22.0374 14.638C22.3686 14.7752 22.6516 15.0075 22.8508 15.3055C23.0499 15.6036 23.1562 15.954 23.1562 16.3125C23.1562 16.7932 22.9653 17.2542 22.6254 17.5941C22.2855 17.934 21.8245 18.125 21.3438 18.125Z" fill="url(#paint0_linear_1_733)"/>
<path id="Vector_2" d="M2.27454 14.6982V6.57031C2.27454 5.87193 2.59852 5.52359 3.14793 5.4375C5.14168 5.12428 9.29797 4.95605 9.29797 4.95605C9.29797 4.95605 8.82616 5.8623 7.74999 5.8623V7.25C8.79784 7.25 9.52454 8.58105 9.52454 8.58105L5.30481 13.3672L2.27454 14.6982Z" fill="#2A460D"/>
</g>
<defs>
<linearGradient id="paint0_linear_1_733" x1="2.28419" y1="2.01181" x2="25.5679" y2="27.3005" gradientUnits="userSpaceOnUse">
<stop stop-color="#80D927" stop-opacity="0.24"/>
<stop offset="1" stop-color="#80D927" stop-opacity="0.24"/>
</linearGradient>
</defs>
</svg>
