<svg width="20" height="20" viewBox="0 0 20 20" fill="none" xmlns="http://www.w3.org/2000/svg">
<g id="ion:wallet-sharp">
<path id="Vector" d="M1.85547 4.0625H16.875V2.0125C16.875 1.92001 16.8545 1.82868 16.8149 1.74509C16.7754 1.6615 16.7177 1.58773 16.6462 1.5291C16.5747 1.47047 16.4911 1.42844 16.4013 1.40605C16.3116 1.38366 16.218 1.38146 16.1273 1.39961L1.75234 3.7621C1.6453 3.78341 1.54571 3.83238 1.46347 3.90413C1.38123 3.97589 1.31922 4.06793 1.28359 4.17109C1.46565 4.09911 1.6597 4.06226 1.85547 4.0625ZM18.1055 5H1.85547C1.68971 5 1.53074 5.06584 1.41353 5.18305C1.29632 5.30026 1.23047 5.45924 1.23047 5.625V16.875C1.23047 17.0408 1.29632 17.1997 1.41353 17.3169C1.53074 17.4341 1.68971 17.5 1.85547 17.5H18.1055C18.2712 17.5 18.4302 17.4341 18.5474 17.3169C18.6646 17.1997 18.7305 17.0408 18.7305 16.875V5.625C18.7305 5.45924 18.6646 5.30026 18.5474 5.18305C18.4302 5.06584 18.2712 5 18.1055 5ZM14.375 12.5C14.1278 12.5 13.8861 12.4267 13.6805 12.2893C13.475 12.152 13.3148 11.9568 13.2201 11.7284C13.1255 11.4999 13.1008 11.2486 13.149 11.0061C13.1972 10.7637 13.3163 10.5409 13.4911 10.3661C13.6659 10.1913 13.8887 10.0722 14.1311 10.024C14.3736 9.97578 14.6249 10.0005 14.8534 10.0951C15.0818 10.1898 15.277 10.35 15.4143 10.5555C15.5517 10.7611 15.625 11.0028 15.625 11.25C15.625 11.5815 15.4933 11.8995 15.2589 12.1339C15.0245 12.3683 14.7065 12.5 14.375 12.5Z" fill="url(#paint0_linear_1_1061)"/>
<path id="Vector_2" d="M1.22382 10.1367V4.53125C1.22382 4.04961 1.44725 3.80937 1.82616 3.75C3.20116 3.53398 6.06757 3.41797 6.06757 3.41797C6.06757 3.41797 5.74218 4.04297 4.99999 4.04297V5C5.72264 5 6.22382 5.91797 6.22382 5.91797L3.31366 9.21875L1.22382 10.1367Z" fill="#2A460D"/>
</g>
<defs>
<linearGradient id="paint0_linear_1_1061" x1="1.23047" y1="1.38745" x2="17.2882" y2="18.8279" gradientUnits="userSpaceOnUse">
<stop stop-color="#80D927" stop-opacity="0.24"/>
<stop offset="1" stop-color="#80D927" stop-opacity="0.24"/>
</linearGradient>
</defs>
</svg>
