<svg width="30" height="29" viewBox="0 0 30 29" fill="none" xmlns="http://www.w3.org/2000/svg">
<g id="mdi:eye">
<path id="Vector" d="M15 10.875C14.0386 10.875 13.1166 11.2569 12.4367 11.9367C11.7569 12.6166 11.375 13.5386 11.375 14.5C11.375 15.4614 11.7569 16.3834 12.4367 17.0633C13.1166 17.7431 14.0386 18.125 15 18.125C15.9614 18.125 16.8834 17.7431 17.5633 17.0633C18.2431 16.3834 18.625 15.4614 18.625 14.5C18.625 13.5386 18.2431 12.6166 17.5633 11.9367C16.8834 11.2569 15.9614 10.875 15 10.875ZM15 20.5417C13.3977 20.5417 11.8609 19.9051 10.7279 18.7721C9.59487 17.6391 8.95834 16.1024 8.95834 14.5C8.95834 12.8977 9.59487 11.3609 10.7279 10.2279C11.8609 9.09486 13.3977 8.45833 15 8.45833C16.6024 8.45833 18.1391 9.09486 19.2721 10.2279C20.4051 11.3609 21.0417 12.8977 21.0417 14.5C21.0417 16.1024 20.4051 17.6391 19.2721 18.7721C18.1391 19.9051 16.6024 20.5417 15 20.5417ZM15 5.4375C8.95834 5.4375 3.79875 9.19542 1.70834 14.5C3.79875 19.8046 8.95834 23.5625 15 23.5625C21.0417 23.5625 26.2013 19.8046 28.2917 14.5C26.2013 9.19542 21.0417 5.4375 15 5.4375Z" fill="url(#paint0_linear_1_731)"/>
</g>
<defs>
<linearGradient id="paint0_linear_1_731" x1="1.70834" y1="5.4375" x2="18.5807" y2="30.1836" gradientUnits="userSpaceOnUse">
<stop stop-color="#80D927" stop-opacity="0.24"/>
<stop offset="1" stop-color="#80D927" stop-opacity="0.24"/>
</linearGradient>
</defs>
</svg>
