<svg width="189" height="30" viewBox="0 0 189 30" fill="none" xmlns="http://www.w3.org/2000/svg">
<g id="pixtrade-branco">
<g id="Group">
<path id="Vector" d="M179.56 0.669227H177.566V0H182.306V0.669227H180.312V5.98543H179.56V0.669227Z" fill="white"/>
<path id="Vector_2" d="M183.05 0H184.081L185.954 4.9714H185.973L187.846 0H188.874V5.98543H188.122V1.06261H188.106L186.297 5.98543H185.627L183.821 1.06261H183.802V5.98543H183.05V0Z" fill="white"/>
</g>
<path id="Vector_3" d="M34.9926 1.58594V5.46495H31.4757V1.58594H34.9926ZM34.8986 9.47874V29.9662H31.5917V9.47874H34.8986Z" fill="white"/>
<path id="Vector_4" d="M73.1416 1.58604V9.47884H80.7664V12.0413H73.1416V24.426C73.1416 25.4713 73.3705 26.197 73.8297 26.6045C74.2889 27.012 75.0913 27.2157 76.237 27.2157H81.3213V29.9678H75.8938C74.0334 29.9678 72.5555 29.5478 71.46 28.7062C70.377 27.8536 69.8425 26.6295 69.8551 25.0372V12.0413H65.6892V9.47884H69.8551V1.58447H73.1432L73.1416 1.58604Z" fill="white"/>
<path id="Vector_5" d="M90.1702 9.479V11.3331C90.667 10.9522 91.0902 10.6451 91.4397 10.4178C91.7907 10.189 92.1528 9.97426 92.5289 9.77679C92.9051 9.57931 93.2138 9.479 93.4552 9.479H98.845V12.2311H90.1686V29.9664H86.8805V9.479H90.1686H90.1702Z" fill="white"/>
<path id="Vector_6" d="M115.453 9.47871C117.276 9.46618 118.829 10.0476 120.118 11.2184C121.417 12.3766 122.055 13.7919 122.028 15.461V29.9662H118.742V28.0933C118.22 28.5007 117.786 28.8205 117.442 29.0493C117.098 29.2781 116.739 29.4897 116.362 29.6793C115.986 29.8705 115.684 29.9662 115.453 29.9662H108.746C106.962 29.9536 105.407 29.3675 104.083 28.2092C102.784 27.0369 102.139 25.6358 102.152 24.0042V23.5074C102.165 21.8398 102.807 20.4246 104.083 19.2648C105.382 18.0925 106.924 17.5188 108.708 17.5439H118.742V15.9014C118.754 14.831 118.347 13.9204 117.519 13.1681C116.704 12.4174 115.721 12.0412 114.576 12.0412H104.351V9.47871H115.453ZM106.644 21.2333C105.854 21.832 105.459 22.6658 105.459 23.7362C105.459 24.6405 105.854 25.4571 106.644 26.1827C107.459 26.8708 108.446 27.214 109.606 27.214H118.742V20.1048H109.606C108.471 20.1048 107.484 20.481 106.644 21.2333Z" fill="white"/>
<path id="Vector_7" d="M149.546 1.58594L149.55 29.9662L146.244 29.963V28.0933C145.721 28.5008 145.288 28.8205 144.945 29.0493C144.6 29.2781 144.243 29.4897 143.874 29.6794C143.505 29.8706 143.205 29.9662 142.976 29.9662H135.674C133.878 29.9536 132.317 29.3675 130.991 28.2093C129.705 27.0369 129.061 25.6233 129.061 23.9666V15.4438C129.061 13.7746 129.711 12.361 131.01 11.2012C132.335 10.0289 133.889 9.4568 135.673 9.48031H146.243L146.239 1.5875H149.545L149.546 1.58594ZM133.573 13.1869C132.77 13.9267 132.367 14.831 132.367 15.9014V23.277C132.38 24.3224 132.795 25.2267 133.61 25.9916C134.425 26.7298 135.394 27.0996 136.516 27.0996H146.244V12.0397H136.516C135.381 12.0397 134.402 12.4205 133.573 13.1853V13.1869Z" fill="white"/>
<path id="Vector_8" d="M170.955 9.47872C172.778 9.46619 174.331 10.0476 175.62 11.2184C176.919 12.3766 177.555 13.7856 177.53 15.4422V19.4168C177.008 19.6456 176.574 19.8275 176.231 19.9622C175.886 20.097 175.527 20.2161 175.151 20.3258C174.775 20.4324 174.472 20.4873 174.244 20.4873H163.119C162.635 20.4873 162.147 20.3274 161.658 20.0093C161.168 19.6911 160.558 19.2256 159.832 18.6128V23.3726C159.832 24.418 160.24 25.3161 161.055 26.0683C161.87 26.8065 162.845 27.1764 163.979 27.1764H170.382C171.529 27.1764 172.496 26.8065 173.286 26.0683C174.101 25.3161 174.508 24.418 174.508 23.3726V23.1438H177.529V23.9651C177.541 25.6217 176.891 27.0369 175.58 28.2077C174.306 29.3659 172.764 29.9536 170.955 29.9646H163.081C161.298 29.9521 159.756 29.3659 158.456 28.2077C157.182 27.0354 156.538 25.6217 156.525 23.9651V15.4422C156.538 13.7731 157.181 12.3594 158.456 11.1996C159.756 10.0273 161.298 9.45521 163.081 9.47872H170.955ZM161.017 13.1681C160.227 13.8953 159.832 14.7934 159.832 15.8622V17.8887H174.244V15.8622C174.256 14.7934 173.849 13.8953 173.021 13.1681C172.206 12.4174 171.223 12.0412 170.078 12.0412H163.981C162.848 12.0412 161.859 12.4174 161.019 13.1681H161.017Z" fill="white"/>
<g id="Group_2">
<path id="Vector_9" d="M53.8563 19.1303L63.0311 9.479H58.5017L51.6778 16.8186L44.8554 9.479H40.326L59.591 29.9664H64.1204L53.8563 19.1303Z" fill="white"/>
<path id="Vector_10" d="M47.1155 21.6836L39.2556 29.9682H43.8038L49.3128 24.0047C48.5809 23.2603 47.8928 22.4578 47.1155 21.6836Z" fill="white"/>
</g>
<path id="Vector_11" d="M22.5907 5.1422C20.7554 3.47149 18.5393 2.6377 15.9392 2.6377H0V16.3028H3.5922V5.46506H15.632C17.4156 5.44155 18.8935 5.96189 20.0658 7.03234C21.2632 8.10279 21.8619 9.45378 21.8619 11.0837C21.8619 12.7137 21.2632 13.9895 20.0658 15.0584C18.8935 16.1304 17.4156 16.6648 15.632 16.6648H4.07335C3.7646 16.6648 3.46838 16.7839 3.24426 16.9986L0.680202 19.4593C0.244499 19.8762 0 20.4529 0 21.0563V29.9679H3.5922V17.66C4.36957 18.3481 5.04193 18.8653 5.60771 19.2085C6.17507 19.5533 6.70168 19.7241 7.1844 19.7241H15.9376C18.5362 19.7241 20.7476 18.8966 22.5688 17.24C24.4041 15.5693 25.3209 13.5569 25.3209 11.1997C25.3335 8.83 24.4229 6.80979 22.5876 5.1422H22.5907Z" fill="white"/>
</g>
</svg>
