<svg width="30" height="29" viewBox="0 0 30 29" fill="none" xmlns="http://www.w3.org/2000/svg">
<g id="solar:dollar-bold">
<path id="Vector" d="M14.0938 9.4818C12.9628 9.79113 12.2812 10.6599 12.2812 11.4792C12.2812 12.2984 12.9628 13.1672 14.0938 13.4753V9.4818ZM15.9062 15.5247V19.517C17.0373 19.2089 17.7188 18.3401 17.7188 17.5208C17.7188 16.7016 17.0373 15.8328 15.9062 15.5247Z" fill="#364B20"/>
<path id="Vector_2" fill-rule="evenodd" clip-rule="evenodd" d="M27.0833 14.5C27.0833 21.1736 21.6736 26.5833 15 26.5833C8.32636 26.5833 2.91666 21.1736 2.91666 14.5C2.91666 7.82638 8.32636 2.41667 15 2.41667C21.6736 2.41667 27.0833 7.82638 27.0833 14.5ZM15 6.34376C15.2403 6.34376 15.4709 6.43923 15.6408 6.60919C15.8108 6.77914 15.9062 7.00965 15.9062 7.25001V7.63305C17.8758 7.98588 19.5312 9.46609 19.5312 11.4792C19.5312 11.7195 19.4358 11.95 19.2658 12.12C19.0959 12.2899 18.8653 12.3854 18.625 12.3854C18.3846 12.3854 18.1541 12.2899 17.9842 12.12C17.8142 11.95 17.7187 11.7195 17.7187 11.4792C17.7187 10.6599 17.0372 9.79113 15.9062 9.4818V13.6747C17.8758 14.0275 19.5312 15.5078 19.5312 17.5208C19.5312 19.5339 17.8758 21.0141 15.9062 21.367V21.75C15.9062 21.9904 15.8108 22.2209 15.6408 22.3908C15.4709 22.5608 15.2403 22.6563 15 22.6563C14.7596 22.6563 14.5291 22.5608 14.3592 22.3908C14.1892 22.2209 14.0937 21.9904 14.0937 21.75V21.367C12.1242 21.0141 10.4687 19.5339 10.4687 17.5208C10.4687 17.2805 10.5642 17.05 10.7342 16.88C10.9041 16.7101 11.1346 16.6146 11.375 16.6146C11.6153 16.6146 11.8459 16.7101 12.0158 16.88C12.1858 17.05 12.2812 17.2805 12.2812 17.5208C12.2812 18.3401 12.9627 19.2089 14.0937 19.517V15.3253C12.1242 14.9725 10.4687 13.4923 10.4687 11.4792C10.4687 9.46609 12.1242 7.98588 14.0937 7.63305V7.25001C14.0937 7.00965 14.1892 6.77914 14.3592 6.60919C14.5291 6.43923 14.7596 6.34376 15 6.34376Z" fill="url(#paint0_linear_1_728)"/>
</g>
<defs>
<linearGradient id="paint0_linear_1_728" x1="2.91666" y1="2.41667" x2="27.0833" y2="26.5833" gradientUnits="userSpaceOnUse">
<stop stop-color="#80D927" stop-opacity="0.24"/>
<stop offset="1" stop-color="#80D927" stop-opacity="0.24"/>
</linearGradient>
</defs>
</svg>
