<svg width="20" height="20" viewBox="0 0 20 20" fill="none" xmlns="http://www.w3.org/2000/svg">
<g id="solar:dollar-bold">
<path id="Vector" d="M9.375 6.53906C8.595 6.7524 8.125 7.35156 8.125 7.91656C8.125 8.48156 8.595 9.08073 9.375 9.29323V6.53906ZM10.625 10.7066V13.4599C11.405 13.2474 11.875 12.6482 11.875 12.0832C11.875 11.5182 11.405 10.9191 10.625 10.7066Z" fill="#364B20"/>
<path id="Vector_2" fill-rule="evenodd" clip-rule="evenodd" d="M18.3333 10.0001C18.3333 14.6026 14.6025 18.3334 9.99999 18.3334C5.39749 18.3334 1.66666 14.6026 1.66666 10.0001C1.66666 5.39758 5.39749 1.66675 9.99999 1.66675C14.6025 1.66675 18.3333 5.39758 18.3333 10.0001ZM9.99999 4.37508C10.1658 4.37508 10.3247 4.44093 10.4419 4.55814C10.5591 4.67535 10.625 4.83432 10.625 5.00008V5.26425C11.9833 5.50758 13.125 6.52841 13.125 7.91675C13.125 8.08251 13.0591 8.24148 12.9419 8.35869C12.8247 8.4759 12.6658 8.54175 12.5 8.54175C12.3342 8.54175 12.1753 8.4759 12.058 8.35869C11.9408 8.24148 11.875 8.08251 11.875 7.91675C11.875 7.35175 11.405 6.75258 10.625 6.53925V9.43092C11.9833 9.67425 13.125 10.6951 13.125 12.0834C13.125 13.4717 11.9833 14.4926 10.625 14.7359V15.0001C10.625 15.1658 10.5591 15.3248 10.4419 15.442C10.3247 15.5592 10.1658 15.6251 9.99999 15.6251C9.83423 15.6251 9.67526 15.5592 9.55805 15.442C9.44084 15.3248 9.37499 15.1658 9.37499 15.0001V14.7359C8.01666 14.4926 6.87499 13.4717 6.87499 12.0834C6.87499 11.9177 6.94084 11.7587 7.05805 11.6415C7.17526 11.5243 7.33423 11.4584 7.49999 11.4584C7.66575 11.4584 7.82472 11.5243 7.94193 11.6415C8.05914 11.7587 8.12499 11.9177 8.12499 12.0834C8.12499 12.6484 8.59499 13.2476 9.37499 13.4601V10.5692C8.01666 10.3259 6.87499 9.30508 6.87499 7.91675C6.87499 6.52841 8.01666 5.50758 9.37499 5.26425V5.00008C9.37499 4.83432 9.44084 4.67535 9.55805 4.55814C9.67526 4.44093 9.83423 4.37508 9.99999 4.37508Z" fill="url(#paint0_linear_1_1056)"/>
</g>
<defs>
<linearGradient id="paint0_linear_1_1056" x1="1.66666" y1="1.66675" x2="18.3333" y2="18.3334" gradientUnits="userSpaceOnUse">
<stop stop-color="#80D927" stop-opacity="0.24"/>
<stop offset="1" stop-color="#80D927" stop-opacity="0.24"/>
</linearGradient>
</defs>
</svg>
