<svg width="19" height="22" viewBox="0 0 19 22" fill="none" xmlns="http://www.w3.org/2000/svg">
<path id="Vector" d="M0.75 13C0.75 18 4.77944 22 9.75 22C14.7206 22 18.75 18 18.75 13C18.75 5.95236 13.2312 1.97072 10.8368 0.574902C10.5355 0.399242 10.3848 0.311412 10.2183 0.331432C10.0848 0.347472 9.9364 0.438722 9.8619 0.550542C9.7688 0.690132 9.7795 0.869502 9.8009 1.22825C9.9971 4.52076 10.5352 11 7.17857 11C5.02186 11 4.67403 9.2804 4.61793 6.56245C4.60825 6.09365 4.60342 5.85925 4.47461 5.7199C4.37106 5.60788 4.1874 5.54269 4.03639 5.56436C3.84856 5.59133 3.71098 5.75375 3.43582 6.07861C2.30088 7.41851 0.75 9.8295 0.75 13Z" fill="black"/>
</svg>
